<?xml version="1.0" encoding="UTF-8" standalone="no"?><!DOCTYPE svg PUBLIC "-//W3C//DTD SVG 1.1//EN" "http://www.w3.org/Graphics/SVG/1.1/DTD/svg11.dtd"><svg width="100%" height="100%" viewBox="0 0 917 313" version="1.1" xmlns="http://www.w3.org/2000/svg" xmlns:xlink="http://www.w3.org/1999/xlink" xml:space="preserve" xmlns:serif="http://www.serif.com/" style="fill-rule:evenodd;clip-rule:evenodd;stroke-linecap:round;stroke-linejoin:round;"><g><path d="M641.146,184.974c-5.629,0 -11.006,2.688 -14.03,8.569c-2.184,-5.545 -6.973,-8.569 -13.106,-8.569c-5.377,0 -10.418,2.352 -13.526,8.149l0,-7.225l-4.201,0l0,42.006l4.201,0l0,-23.44c0,-10.754 6.133,-15.458 13.022,-15.458c6.469,0 10.754,4.285 10.754,12.266l0,26.632l4.201,0l0,-23.44c0,-10.754 5.545,-15.458 12.602,-15.458c6.553,0 11.174,4.285 11.174,12.266l0,26.632l4.201,0l0,-26.632c0,-10.502 -6.385,-16.298 -15.29,-16.298Z" style="fill:#fff;fill-rule:nonzero;"/><path d="M705.248,185.898l0,9.493c-3.529,-6.301 -9.998,-10.418 -18.063,-10.418c-11.93,0 -21.759,9.493 -21.759,21.927c0,12.434 9.829,21.927 21.759,21.927c8.065,0 14.534,-4.117 18.063,-10.418l0,9.493l4.285,0l0,-42.006l-4.285,0Zm-17.727,38.898c-9.998,0 -17.811,-7.897 -17.811,-17.895c0,-9.998 7.813,-17.895 17.811,-17.895c9.998,0 17.727,7.897 17.727,17.895c0,9.998 -7.729,17.895 -17.727,17.895Z" style="fill:#fff;fill-rule:nonzero;"/><path d="M743.977,190.014l0,-4.117l-12.518,0l0,-11.762l-4.285,1.26l0,10.502l-9.241,0l0,4.117l9.241,0l0,27.304c0,9.577 5.797,12.266 16.803,10.586l0,-3.781c-8.569,0.756 -12.518,0.588 -12.518,-6.805l0,-27.304l12.518,0Z" style="fill:#fff;fill-rule:nonzero;"/><path d="M770.441,184.974c-12.854,0 -21.759,9.577 -21.759,21.927c0,12.686 9.157,21.927 22.095,21.927c8.317,0 14.87,-3.781 18.315,-9.493l-3.697,-2.184c-2.436,4.453 -7.645,7.645 -14.534,7.645c-9.577,0 -16.803,-6.217 -17.811,-15.71l38.058,0c0,-0.672 0.084,-1.344 0.084,-2.016c0,-11.51 -7.981,-22.095 -20.751,-22.095Zm0,4.033c8.233,0 15.458,5.713 16.382,15.962l-33.773,0c0.84,-9.325 7.813,-15.962 17.391,-15.962Z" style="fill:#fff;fill-rule:nonzero;"/></g><g><g><path d="M558.636,56.949l-12.205,45.428l-13.222,-45.428l-23.731,0l-13.222,45.428l-12.205,-45.428l-27.121,0l27.121,84.754l23.731,0l13.561,-45.259l13.561,45.259l23.731,0l27.121,-84.754l-27.121,0Z" style="fill:#ffab65;"/><path d="M654.069,56.949l0,7.967c-5.594,-6.441 -13.9,-10.34 -25.257,-10.34c-22.206,0 -40.512,19.493 -40.512,44.75c0,25.257 18.307,44.75 40.512,44.75c11.357,0 19.663,-3.899 25.257,-10.34l0,7.967l25.426,0l0,-84.754l-25.426,0Zm-20.171,63.057c-11.696,0 -20.171,-7.967 -20.171,-20.68c0,-12.713 8.475,-20.68 20.171,-20.68c11.696,0 20.171,7.967 20.171,20.68c0,12.713 -8.475,20.68 -20.171,20.68Z" style="fill:#ffab65;"/><path d="M710.855,49.491c8.306,0 15.256,-6.95 15.256,-15.256c0,-8.306 -6.95,-15.256 -15.256,-15.256c-8.306,0 -15.256,6.95 -15.256,15.256c0,8.306 6.95,15.256 15.256,15.256Zm-12.713,92.212l25.426,0l0,-84.754l-25.426,0l0,84.754Z" style="fill:#ffab65;"/><path d="M791.879,81.358l0,-24.409l-17.459,0l0,-23.731l-25.426,7.628l0,16.103l-13.561,0l0,24.409l13.561,0l0,30.003c0,23.731 9.662,33.732 42.886,30.342l0,-23.053c-11.188,0.678 -17.459,0 -17.459,-7.289l0,-30.003l17.459,0Z" style="fill:#ffab65;"/></g></g><g><path d="M377.343,82.122l0,126.279c0,34.848 -28.292,63.14 -63.14,63.14l-126.279,0c-34.848,0 -63.14,-28.292 -63.14,-63.14l0,-126.279c0,-34.848 28.292,-63.14 63.14,-63.14l126.279,0c34.848,0 63.14,28.292 63.14,63.14Z" style="fill:#ffab65;"/><g><clipPath id="_clip1"><path d="M377.343,82.122l0,126.279c0,34.848 -28.292,63.14 -63.14,63.14l-126.279,0c-34.848,0 -63.14,-28.292 -63.14,-63.14l0,-126.279c0,-34.848 28.292,-63.14 63.14,-63.14l126.279,0c34.848,0 63.14,28.292 63.14,63.14Z"/></clipPath><g clip-path="url(#_clip1)"><g><path d="M288.234,250.278l7.543,4.276c12.41,7.036 28.421,2.61 35.457,-9.8l42.76,-75.428c7.036,-12.41 2.61,-28.421 -9.8,-35.457l-75.428,-42.76c-12.41,-7.036 -28.421,-2.61 -35.457,9.8l-42.76,75.428c-7.036,12.41 -2.61,28.421 9.8,35.457l7.543,4.276m81.723,-3.506l-13.067,-47.276m0,0l-47.276,13.067m47.276,-13.067l-72.693,128.228m-9.03,-124.723l-7.543,-4.276c-12.41,-7.036 -16.836,-23.046 -9.8,-35.457l42.76,-75.428c7.036,-12.41 23.046,-16.836 35.457,-9.8l75.428,42.76c12.41,7.036 16.836,23.046 9.8,35.457l-4.276,7.543" style="fill:none;fill-rule:nonzero;stroke:#fff;stroke-width:17.34px;"/></g></g></g></g></svg>